<svg xmlns="http://www.w3.org/2000/svg" xmlns:xlink="http://www.w3.org/1999/xlink" width="278" height="101" viewBox="0 0 278 101"><defs><filter id="a" x="10" y="3" width="260" height="102" filterUnits="userSpaceOnUse"><feOffset dy="3" input="SourceAlpha"/><feGaussianBlur stdDeviation="3" result="b"/><feFlood flood-opacity="0.161"/><feComposite operator="in" in2="b"/><feComposite in="SourceGraphic"/></filter><filter id="c" x="-1" y="14" width="274" height="77" filterUnits="userSpaceOnUse"><feOffset dx="-3" dy="3" input="SourceAlpha"/><feGaussianBlur stdDeviation="3" result="d"/><feFlood flood-opacity="0.02"/><feComposite operator="in" in2="d"/><feComposite in="SourceGraphic"/></filter><clipPath id="f"><rect width="278" height="101"/></clipPath></defs><g id="e" clip-path="url(#f)"><g transform="translate(-26 -11)"><g transform="matrix(1, 0, 0, 1, 26, 11)" filter="url(#a)"><g transform="translate(19 9)" fill="#2b2b2b"><path d="M 240.5 82.5 L 1.5 82.5 L 1.5 1.5 L 240.5 1.5 L 240.5 82.5 Z" stroke="none"/><path d="M 3 3 L 3 81 L 239 81 L 239 3 L 3 3 M 0 0 L 242 0 L 242 84 L 0 84 L 0 0 Z" stroke="none" fill="#dbdbdb"/></g></g><g transform="matrix(1, 0, 0, 1, 26, 11)" filter="url(#c)"><text transform="translate(11 20)" fill="#dbdbdb" font-size="45" font-family="JetBrainsMonoMediumNerdFontComplete-Medium, JetBrainsMonoMedium Nerd Font" font-weight="500"><tspan x="33.5" y="44">Hikeshi</tspan></text></g></g></g></svg>