<svg xmlns="http://www.w3.org/2000/svg" xmlns:xlink="http://www.w3.org/1999/xlink" width="592" height="215" viewBox="0 0 592 215"><defs><filter id="a" x="21.733" y="8" width="554.422" height="204.196" filterUnits="userSpaceOnUse"><feOffset dy="3" input="SourceAlpha"/><feGaussianBlur stdDeviation="3" result="b"/><feFlood flood-opacity="0.161"/><feComposite operator="in" in2="b"/><feComposite in="SourceGraphic"/></filter><filter id="c" x="1" y="32" width="585" height="152" filterUnits="userSpaceOnUse"><feOffset dx="-3" dy="3" input="SourceAlpha"/><feGaussianBlur stdDeviation="3" result="d"/><feFlood flood-opacity="0.02"/><feComposite operator="in" in2="d"/><feComposite in="SourceGraphic"/></filter><clipPath id="f"><rect width="592" height="215"/></clipPath></defs><g id="e" clip-path="url(#f)"><g transform="translate(-24 -6)"><g transform="matrix(1, 0, 0, 1, 24, 6)" filter="url(#a)"><g transform="translate(30.73 14)" fill="#2b2b2b"><path d="M 534.9224853515625 184.6962585449219 L 1.4999760389328 184.6962585449219 L 1.4999760389328 1.499988317489624 L 534.9224853515625 1.499988317489624 L 534.9224853515625 184.6962585449219 Z" stroke="none"/><path d="M 2.99993896484375 2.999984741210938 L 2.99993896484375 183.1962585449219 L 533.4224853515625 183.1962585449219 L 533.4224853515625 2.999984741210938 L 2.99993896484375 2.999984741210938 M -6.103515625e-05 -1.52587890625e-05 L 536.4224853515625 -1.52587890625e-05 L 536.4224853515625 186.1962585449219 L -6.103515625e-05 186.1962585449219 L -6.103515625e-05 -1.52587890625e-05 Z" stroke="none" fill="#dbdbdb"/></g></g><g transform="matrix(1, 0, 0, 1, 24, 6)" filter="url(#c)"><text transform="translate(13 38)" fill="#dbdbdb" font-size="110" font-family="JetBrainsMonoMediumNerdFontComplete-Medium, JetBrainsMonoMedium Nerd Font" font-weight="500"><tspan x="52.5" y="108">Hikeshi</tspan></text></g></g></g></svg>